<svg xmlns="http://www.w3.org/2000/svg" viewBox="0 0 153.37 153.22"><defs><style>.cls-1{fill:#fc0;}</style></defs><g id="Слой_2" data-name="Слой 2"><g id="Слой_1-2" data-name="Слой 1"><g id="Symbols"><g id="Black-L"><path class="cls-1" d="M76.66,40a35.25,35.25,0,0,0-14.14,2.86A37.38,37.38,0,0,0,42.94,62.43a36.6,36.6,0,0,0,0,28.32,37.51,37.51,0,0,0,19.58,19.6,36.15,36.15,0,0,0,28.28,0,37.51,37.51,0,0,0,19.58-19.6,36.6,36.6,0,0,0,0-28.32A37.38,37.38,0,0,0,90.8,42.85,35.21,35.21,0,0,0,76.66,40Zm32.81-9.18a8.75,8.75,0,0,0-2.54,6.54A9.22,9.22,0,0,0,109.67,44a8.61,8.61,0,0,0,6.54,2.59,9,9,0,0,0,6.59-2.73l8.06-8.11a8.78,8.78,0,0,0,2.59-6.59,9.07,9.07,0,0,0-2.79-6.64A8.47,8.47,0,0,0,124.15,20a9.22,9.22,0,0,0-6.62,2.75ZM86,132.42a9.29,9.29,0,0,0-15.9-6.52,8.93,8.93,0,0,0-2.76,6.52v11.43a9.06,9.06,0,0,0,2.76,6.56,9.09,9.09,0,0,0,13.14,0A9.06,9.06,0,0,0,86,143.85Zm0-123a9.07,9.07,0,0,0-2.76-6.6,9.15,9.15,0,0,0-13.14,0,9.07,9.07,0,0,0-2.76,6.6V20.75a9,9,0,0,0,2.76,6.57,9.2,9.2,0,0,0,13.14,0A9,9,0,0,0,86,20.75ZM30.47,43.85a9.14,9.14,0,0,0,6.62,2.73A8.74,8.74,0,0,0,43.65,44a9.22,9.22,0,0,0,2.74-6.64,8.75,8.75,0,0,0-2.54-6.54L35.79,22.7A9.06,9.06,0,0,0,29.2,20a8.51,8.51,0,0,0-6.54,2.56,9.18,9.18,0,0,0-2.74,6.64,8.72,8.72,0,0,0,2.54,6.54Zm92.23,65.43a8.73,8.73,0,0,0-6.56-2.59,9.34,9.34,0,0,0-6.67,2.73,8.85,8.85,0,0,0-2.54,6.55,9.36,9.36,0,0,0,2.74,6.64l8.1,8a8.8,8.8,0,0,0,6.57,2.54,9.16,9.16,0,0,0,6.62-2.73,8.75,8.75,0,0,0,2.58-6.57,9.17,9.17,0,0,0-2.73-6.62Zm-100.19,8a9,9,0,0,0-2.73,6.6,8.7,8.7,0,0,0,2.53,6.54A9.3,9.3,0,0,0,29,133.18a8.7,8.7,0,0,0,6.59-2.57l8.1-8A9.36,9.36,0,0,0,46.39,116a8.85,8.85,0,0,0-2.54-6.55,9.37,9.37,0,0,0-6.69-2.73,8.61,8.61,0,0,0-6.54,2.59ZM144,85.89a9.07,9.07,0,0,0,6.6-2.76,9.09,9.09,0,0,0,0-13.09,9.07,9.07,0,0,0-6.6-2.76H132.62a9.26,9.26,0,0,0-6.52,15.85,8.91,8.91,0,0,0,6.52,2.76ZM9.33,67.28A9,9,0,0,0,2.76,70a9.14,9.14,0,0,0,0,13.09,9,9,0,0,0,6.57,2.76H20.7a9.07,9.07,0,0,0,6.57-2.76,9,9,0,0,0,0-13.09,9.07,9.07,0,0,0-6.57-2.76Z"/></g></g></g></g></svg>