<svg xmlns="http://www.w3.org/2000/svg" viewBox="0 0 112.35 142.72"><defs><style>.cls-1{fill:#fff;}</style></defs><g id="Слой_2" data-name="Слой 2"><g id="Слой_1-2" data-name="Слой 1"><g id="Symbols"><g id="Medium-L"><path class="cls-1" d="M19.87,142.72H92.48q9.87,0,14.87-5t5-14.72V60.06q0-9.68-5-14.67t-14.87-5H75.1V51.07H91.85q4.68,0,7.25,2.49t2.56,7.38v61.18c0,3.29-.85,5.75-2.56,7.4S95,132,91.85,132H20.51q-4.74,0-7.25-2.46c-1.68-1.65-2.52-4.11-2.52-7.4V60.94q0-4.89,2.52-7.38t7.25-2.49H37.35V40.38H19.87q-9.77,0-14.82,5T0,60.06V123q0,9.72,5.05,14.72T19.87,142.72ZM56.2,93.12a5.09,5.09,0,0,0,5.08-5V22.85l-.39-9.28,4.64,5.28,9.52,10a4.5,4.5,0,0,0,3.42,1.51,4.57,4.57,0,0,0,3.24-1.24,4.16,4.16,0,0,0,1.35-3.2,4.24,4.24,0,0,0-.37-1.74,4.9,4.9,0,0,0-1-1.48L60.06,1.76a6.93,6.93,0,0,0-2-1.37A4.91,4.91,0,0,0,56.2,0a5,5,0,0,0-2,.39,6.17,6.17,0,0,0-1.91,1.37l-21.58,21a4.76,4.76,0,0,0-1.1,1.48,4.49,4.49,0,0,0,1,4.94,4.42,4.42,0,0,0,3.17,1.24,4.48,4.48,0,0,0,3.47-1.51l9.57-10,4.68-5.28-.44,9.28V88.09a4.87,4.87,0,0,0,1.49,3.54A5,5,0,0,0,56.2,93.12Z"/></g></g></g></g></svg>