<svg xmlns="http://www.w3.org/2000/svg" viewBox="0 0 195.65 195.67"><defs><style>.cls-1{fill:#fff;}.cls-2{fill:#fc0;}</style></defs><g id="Слой_2" data-name="Слой 2"><g id="Слой_1-2" data-name="Слой 1"><g id="Symbols"><g id="Black-L"><path class="cls-1" d="M27.88,138.33h75.68a32.71,32.71,0,0,0,12.87-2.51,31.19,31.19,0,0,0,10.33-7,32.67,32.67,0,0,0,6.86-10.59,36.64,36.64,0,0,0-.17-26.83,32.83,32.83,0,0,0-7.38-10.87,33.27,33.27,0,0,0-11.18-7.15,37.58,37.58,0,0,0-14.11-2.49,46.93,46.93,0,0,0-8.49-11.28,40.62,40.62,0,0,0-12.77-8.42A44.26,44.26,0,0,0,62.06,48,43.49,43.49,0,0,0,32.71,59.08a42.17,42.17,0,0,0-9.44,12.36A41.06,41.06,0,0,0,19,86.82,25.7,25.7,0,0,0,9,92a24.8,24.8,0,0,0-6.62,8.79A27.19,27.19,0,0,0,0,112.11a26.26,26.26,0,0,0,3.52,13.72,24.14,24.14,0,0,0,9.79,9.2A30.85,30.85,0,0,0,27.88,138.33Z"/><path class="cls-2" d="M146.53,94.87A32.35,32.35,0,0,0,160.2,68.31a32.06,32.06,0,0,0-2.53-12.72,32.84,32.84,0,0,0-7.06-10.42,33.19,33.19,0,0,0-10.45-7,33.33,33.33,0,0,0-23.83-.63,32.82,32.82,0,0,0-9.42,5.25,30.57,30.57,0,0,0-6.86,7.64A42.18,42.18,0,0,1,104.13,55a35.66,35.66,0,0,1,3.39,5.52,42.47,42.47,0,0,1,18,5.07,41.45,41.45,0,0,1,13.75,12A40.74,40.74,0,0,1,146.53,94.87Zm30.72-19.14h10.88a7.32,7.32,0,0,0,5.3-2.15,7,7,0,0,0,2.22-5.22,7.58,7.58,0,0,0-7.52-7.52H177.25a7.32,7.32,0,0,0-5.33,2.22,7.22,7.22,0,0,0-2.24,5.3,7,7,0,0,0,2.24,5.22A7.42,7.42,0,0,0,177.25,75.73Zm-19.88-37.3a7.07,7.07,0,0,0,5.3,2.1A7.48,7.48,0,0,0,168,38.28l7.66-7.62a7.08,7.08,0,0,0,2.2-5.29,7.21,7.21,0,0,0-2.15-5.3,7.09,7.09,0,0,0-5.25-2.13,7.46,7.46,0,0,0-5.34,2.23l-7.72,7.61a7.61,7.61,0,0,0,0,10.65Zm-30-12.5a7,7,0,0,0,5.25-2.25,7.4,7.4,0,0,0,2.18-5.32V7.57a7.37,7.37,0,0,0-2.18-5.35,7.32,7.32,0,0,0-10.5,0,7.4,7.4,0,0,0-2.17,5.35V18.36a7.43,7.43,0,0,0,2.17,5.32A7,7,0,0,0,127.34,25.93ZM86.72,38.23a7.39,7.39,0,0,0,5.37,2.27,7.21,7.21,0,0,0,7.37-7.39,7.55,7.55,0,0,0-2.24-5.33L89.65,20a7,7,0,0,0-5.32-2.17A7.32,7.32,0,0,0,79,20a7,7,0,0,0-2.1,5.25,7.53,7.53,0,0,0,2.2,5.3Zm78.37,78.37a7.28,7.28,0,0,0,5.32,2.22,7.07,7.07,0,0,0,5.27-2.12,6.91,6.91,0,0,0,2.1-5.25,7.57,7.57,0,0,0-2.24-5.35L168,98.34a7.11,7.11,0,0,0-5.3-2.15,7.29,7.29,0,0,0-5.35,2.15,7.14,7.14,0,0,0-2.1,5.3,7.38,7.38,0,0,0,2.2,5.25Z"/><path class="cls-1" d="M86.52,160.74H70.07l-.49,4.35L77,150.93a1.86,1.86,0,0,0,.17-1.76,1.44,1.44,0,0,0-1.44-.73H57.32a3,3,0,0,0-2,.49,3.91,3.91,0,0,0-1,1.51l-8.74,19.87a2,2,0,0,0-.08,1.83,1.78,1.78,0,0,0,1.69.71H60.6l.19-3.9-10.25,24.8c-.39.91-.26,1.51.39,1.81a1.87,1.87,0,0,0,2-.54L87.45,164a1.91,1.91,0,0,0,.81-2.07A1.57,1.57,0,0,0,86.52,160.74Z"/></g></g></g></g></svg>