<svg xmlns="http://www.w3.org/2000/svg" viewBox="0 0 161.72 109.08"><defs><style>.cls-1{fill:#fff;}</style></defs><g id="Слой_2" data-name="Слой 2"><g id="Слой_1-2" data-name="Слой 1"><g id="Symbols"><g id="Black-L"><path class="cls-1" d="M35.35,109.08H120A42.66,42.66,0,0,0,136.4,106a41.32,41.32,0,0,0,13.28-8.69,39.89,39.89,0,0,0,8.86-13,40.84,40.84,0,0,0,3.18-16.16,42.13,42.13,0,0,0-3.15-16.36,39.83,39.83,0,0,0-8.86-13.21,41.08,41.08,0,0,0-13.46-8.81,43.34,43.34,0,0,0-16.87-3.13A50,50,0,0,0,108.23,12,46.09,46.09,0,0,0,93,3.05,55.82,55.82,0,0,0,74.17,0,52.32,52.32,0,0,0,55.64,3.27a51.19,51.19,0,0,0-27.1,23.51,52.87,52.87,0,0,0-5.93,18.09,35.11,35.11,0,0,0-12.11,7A31.22,31.22,0,0,0,2.71,62.57,32.26,32.26,0,0,0,0,75.78,32.68,32.68,0,0,0,4.54,93a31.92,31.92,0,0,0,12.53,11.79A38.1,38.1,0,0,0,35.35,109.08Z"/></g></g></g></g></svg>