<svg xmlns="http://www.w3.org/2000/svg" viewBox="0 0 160.6 121.14"><defs><style>.cls-1{fill:#fff;}</style></defs><g id="Слой_2" data-name="Слой 2"><g id="Слой_1-2" data-name="Слой 1"><g id="Symbols"><g id="Black-L"><path class="cls-1" d="M51.12,121.14h77.44a33.6,33.6,0,0,0,16.56-4,30.54,30.54,0,0,0,12.81-39.06,31,31,0,0,0-7.37-10.18,30.26,30.26,0,0,0-10.91-6.43,33.24,33.24,0,0,0-4.08-11.4A35.35,35.35,0,0,0,117.7,34.81a33.19,33.19,0,0,0-12-2.19A32.5,32.5,0,0,0,91.14,36a31.38,31.38,0,0,0-11.45,9.55,30.63,30.63,0,0,0-3.13-.44q-1.61-.15-3.27-.15a28.23,28.23,0,0,0-12.06,2.64,29.61,29.61,0,0,0-9.77,7.27,27.69,27.69,0,0,0-5.85,10.6A28.2,28.2,0,0,0,25.2,80.25a26.9,26.9,0,0,0-3,12.67,28,28,0,0,0,3.73,14.4,27.19,27.19,0,0,0,10.28,10.11A29.68,29.68,0,0,0,51.12,121.14ZM13.87,84.62a31.18,31.18,0,0,1,4.37-12.7A29.4,29.4,0,0,1,26.73,63a26.74,26.74,0,0,1,10.82-4.35,33.19,33.19,0,0,1,7.54-12.86A35.35,35.35,0,0,1,57,37.55a36.18,36.18,0,0,1,14.33-2.88c1,0,2,0,3.08.12s2,.17,3,.27A27.2,27.2,0,0,1,90.82,23.8a39.87,39.87,0,0,1,18.65-2.27,19,19,0,0,0-8.27-7.3,27.36,27.36,0,0,0-12.14-2.71,25.11,25.11,0,0,0-4,.32,30.62,30.62,0,0,0-3.91.9A32,32,0,0,0,69.38,3.08,33.93,33.93,0,0,0,54.93,0a33.37,33.37,0,0,0-12,2.17A34.48,34.48,0,0,0,32.64,8.28,35.88,35.88,0,0,0,25,17.46a34.16,34.16,0,0,0-4.12,11.4A29.87,29.87,0,0,0,10,35.23,31.32,31.32,0,0,0,2.66,45.39,29.74,29.74,0,0,0,0,57.86,34.18,34.18,0,0,0,3.08,72Q6.15,78.86,13.87,84.62Z"/></g></g></g></g></svg>