<svg xmlns="http://www.w3.org/2000/svg" viewBox="0 0 161.47 137.79"><defs><style>.cls-1{fill:#fc0;}.cls-2{fill:#fff;}</style></defs><g id="Слой_2" data-name="Слой 2"><g id="Слой_1-2" data-name="Слой 1"><g id="Symbols"><g id="Black-L"><path class="cls-1" d="M115.23,102.34a33.82,33.82,0,0,0-2.68-13.45,35.13,35.13,0,0,0-7.42-11,34.54,34.54,0,0,0-11-7.45,34.62,34.62,0,0,0-26.76,0A35,35,0,0,0,48.93,88.89a33.83,33.83,0,0,0-2.69,13.45,28.77,28.77,0,0,0,.2,3.37,25.93,25.93,0,0,0,.58,3.23h67.43a25.94,25.94,0,0,0,.59-3.23A28.78,28.78,0,0,0,115.23,102.34Zm-1.8-32.47A6.89,6.89,0,0,0,118.7,72a7.58,7.58,0,0,0,5.37-2.32L132,61.87a7.55,7.55,0,0,0,2.27-5.42,7.25,7.25,0,0,0-2.12-5.33,7,7,0,0,0-5.27-2.1,7.47,7.47,0,0,0-5.38,2.35l-7.91,7.81a7.75,7.75,0,0,0-2.27,5.4A6.85,6.85,0,0,0,113.43,69.87Zm-76-.24A7.63,7.63,0,0,0,42.8,72a6.94,6.94,0,0,0,5.3-2.08,7,7,0,0,0,2.1-5.29,7.57,7.57,0,0,0-2.3-5.4L40,51.37a7.48,7.48,0,0,0-5.42-2.32,7.18,7.18,0,0,0-7.4,7.37,7.55,7.55,0,0,0,2.32,5.45Zm-21.68,35.2,11.09,0a7.61,7.61,0,0,0,5.49-2.19,7.27,7.27,0,0,0,0-10.48A7.57,7.57,0,0,0,26.81,90H15.72a7.52,7.52,0,0,0-5.42,2.17,7.18,7.18,0,0,0,0,10.45A7.52,7.52,0,0,0,15.72,104.83Zm119,0h11.08a7.49,7.49,0,0,0,5.45-2.17,7.26,7.26,0,0,0,0-10.45A7.49,7.49,0,0,0,145.75,90H134.67a7.6,7.6,0,0,0-5.45,2.17,7.12,7.12,0,0,0,0,10.45A7.6,7.6,0,0,0,134.67,104.83Z"/><path class="cls-2" d="M9.08,137.79H152.39a8.53,8.53,0,0,0,6.45-2.78,9.3,9.3,0,0,0,0-12.94,8.6,8.6,0,0,0-6.47-2.73H9.08a8.57,8.57,0,0,0-6.44,2.75,9.14,9.14,0,0,0,0,12.87A8.5,8.5,0,0,0,9.08,137.79Zm71.68-83A7,7,0,0,0,86,52.47a7.56,7.56,0,0,0,2.17-5.4l0-18L86.67,17.92l3.76,6,4.93,5.66a10.77,10.77,0,0,0,2.54,2.34,6,6,0,0,0,3.37.93,6.63,6.63,0,0,0,4.88-2,6.46,6.46,0,0,0,2-4.74,6.3,6.3,0,0,0-.91-3.27A12.7,12.7,0,0,0,104.88,20L86.33,2.54a7.42,7.42,0,0,0-11.18,0L56.59,20a14.43,14.43,0,0,0-2.29,2.83,6.14,6.14,0,0,0-.93,3.27,6.45,6.45,0,0,0,2,4.74,6.63,6.63,0,0,0,4.88,2,6,6,0,0,0,3.37-.93,10.58,10.58,0,0,0,2.54-2.34l5.18-5.91,3.51-5.71L73.39,29.05l0,18a7.56,7.56,0,0,0,2.17,5.4A7,7,0,0,0,80.76,54.74Z"/></g></g></g></g></svg>