<svg xmlns="http://www.w3.org/2000/svg" viewBox="0 0 119.46 135.5"><defs><style>.cls-1{fill:#fff;}</style></defs><g id="Слой_2" data-name="Слой 2"><g id="Слой_1-2" data-name="Слой 1"><g id="Symbols"><g id="Black-L"><path class="cls-1" d="M59.74,135.5a6.94,6.94,0,0,0,5.35-2.15,8,8,0,0,0,2-5.62V117.58l5.08,4a7.11,7.11,0,0,0,5,2A5.85,5.85,0,0,0,81.76,121a6.47,6.47,0,0,0,1.17-4.81,6.31,6.31,0,0,0-3.07-4.33l-12.8-8V97.12L65.35,77.69,81.52,88.87l5.76,3.37.58,15a6.3,6.3,0,0,0,2.23,4.83,6,6,0,0,0,4.71,1.27,5.54,5.54,0,0,0,4.51-2.56,7.3,7.3,0,0,0,.81-5.35l-.93-6.35,8.89,5.08a7.61,7.61,0,0,0,5.81,1.07,6.81,6.81,0,0,0,4.44-3.56,7.53,7.53,0,0,0,.78-5.74,7.31,7.31,0,0,0-3.71-4.51l-8.79-5.13,5.91-2.39a7.07,7.07,0,0,0,4.25-3.32,5.6,5.6,0,0,0,0-5.28,6.29,6.29,0,0,0-3.54-3.37,6.37,6.37,0,0,0-5.25.49l-13.33,7L88.84,76,71.12,67.77l17.72-8.3,5.81-3.37L108,63.18a6.08,6.08,0,0,0,5.27.47,6.71,6.71,0,0,0,3.62-3.49,5.51,5.51,0,0,0-.05-5.18,7.24,7.24,0,0,0-4.3-3.37l-5.91-2.34,8.79-5.18a7.63,7.63,0,0,0,3.79-4.49,7.16,7.16,0,0,0-.81-5.66,7.05,7.05,0,0,0-4.49-3.57,7.51,7.51,0,0,0-5.81,1l-8.89,5,.93-6.25a7.25,7.25,0,0,0-.78-5.4,5.4,5.4,0,0,0-4.49-2.56,6.12,6.12,0,0,0-7,6.1l-.58,15.14-5.76,3.32L65.35,58l1.71-19.58V31.64l12.8-8a6.21,6.21,0,0,0,3-4.32,6.68,6.68,0,0,0-1.15-4.81A5.69,5.69,0,0,0,77.19,12a7.25,7.25,0,0,0-5,2l-5.08,4V7.76a8,8,0,0,0-2-5.61,7.64,7.64,0,0,0-10.65,0,7.87,7.87,0,0,0-2,5.59V18l-5.07-4a7.41,7.41,0,0,0-5.08-2,5.65,5.65,0,0,0-4.54,2.54,6.42,6.42,0,0,0-1.17,4.81,6.29,6.29,0,0,0,3,4.32l12.84,8v6.74L54.12,58,38,46.73,32.2,43.31l-.59-15a6.11,6.11,0,0,0-7-6.1,5.34,5.34,0,0,0-4.47,2.56,7.39,7.39,0,0,0-.8,5.35l.93,6.3-8.89-5a7.43,7.43,0,0,0-5.79-1A7.06,7.06,0,0,0,1.1,33.94a7.16,7.16,0,0,0-.81,5.68A7.44,7.44,0,0,0,4,44.09l8.83,5.18L7,51.61A7.12,7.12,0,0,0,2.68,55a5.5,5.5,0,0,0,0,5.2,6.45,6.45,0,0,0,3.51,3.47,6.16,6.16,0,0,0,5.28-.49l13.28-7,5.86,3.32,17.72,8.3L30.64,76l-5.81,3.37-13.33-7a6,6,0,0,0-5.3-.51,6.54,6.54,0,0,0-3.54,3.49,5.58,5.58,0,0,0,0,5.2A7.18,7.18,0,0,0,7,83.89l5.9,2.39L4.07,91.41A7.63,7.63,0,0,0,.29,95.92a7,7,0,0,0,.81,5.74,6.82,6.82,0,0,0,4.49,3.56,7.57,7.57,0,0,0,5.81-1.07l8.89-5-.93,6.25a7.16,7.16,0,0,0,.78,5.4,5.41,5.41,0,0,0,4.49,2.56,6.09,6.09,0,0,0,7-6.1l.59-15.14L38,88.77,54.12,77.59,52.41,97.12v6.74l-12.84,8a6.23,6.23,0,0,0-3,4.33A6.68,6.68,0,0,0,37.72,121a5.7,5.7,0,0,0,4.54,2.56,7.29,7.29,0,0,0,5.08-2l5.07-4v10.15a7.85,7.85,0,0,0,2,5.62A7,7,0,0,0,59.74,135.5Z"/></g></g></g></g></svg>