<svg xmlns="http://www.w3.org/2000/svg" viewBox="0 0 178.03 175.7"><defs><style>.cls-1{fill:#fff;}</style></defs><g id="Слой_2" data-name="Слой 2"><g id="Слой_1-2" data-name="Слой 1"><g id="Symbols"><g id="Black-L"><path class="cls-1" d="M27.88,118.36h75.68a32.58,32.58,0,0,0,12.85-2.51,31.39,31.39,0,0,0,10.3-7,32.66,32.66,0,0,0,6.86-10.6,36.77,36.77,0,0,0-.15-26.88,32.22,32.22,0,0,0-7.37-10.86,33.15,33.15,0,0,0-11.18-7.13,38.25,38.25,0,0,0-14.09-2.52,47.32,47.32,0,0,0-8.49-11.28,40.62,40.62,0,0,0-12.77-8.42,44.26,44.26,0,0,0-17.46-3.2,43.23,43.23,0,0,0-16,3,43.72,43.72,0,0,0-13.36,8.22,42.17,42.17,0,0,0-9.44,12.36A41.06,41.06,0,0,0,19,66.85,24.91,24.91,0,0,0,2.34,80.79,27,27,0,0,0,0,92.09a26.26,26.26,0,0,0,3.52,13.72A24.34,24.34,0,0,0,13.31,115,30.73,30.73,0,0,0,27.88,118.36Zm58.64,22.41H70.07l-.49,4.3L77,130.91a1.81,1.81,0,0,0,.17-1.73,1.45,1.45,0,0,0-1.44-.71H57.32a3,3,0,0,0-2,.49,3.92,3.92,0,0,0-1,1.46l-8.74,19.87a2,2,0,0,0-.08,1.86,1.82,1.82,0,0,0,1.69.68H60.6l.19-3.9L50.54,173.78c-.39.91-.26,1.51.39,1.81a1.85,1.85,0,0,0,2-.59l34.52-31a2,2,0,0,0,.81-2.1A1.58,1.58,0,0,0,86.52,140.77Z"/><path class="cls-1" d="M147.51,79.64a45.54,45.54,0,0,0,12.67-5.71,45.05,45.05,0,0,0,9.62-8.4A38.83,38.83,0,0,0,175.9,56,23.07,23.07,0,0,0,178,46.78a6.51,6.51,0,0,0-.91-3.61,2.9,2.9,0,0,0-2.61-1.42,11.63,11.63,0,0,0-4.27,1q-2.42,1-5.76,2a29.35,29.35,0,0,1-8.08,1A26.44,26.44,0,0,1,143.8,43a19.59,19.59,0,0,1-8.18-7.84,23.61,23.61,0,0,1-2.86-11.79,34.44,34.44,0,0,1,.93-8.32q.93-3.73,1.88-6.57a15.47,15.47,0,0,0,1-4.84A3.52,3.52,0,0,0,135.45,1a4.12,4.12,0,0,0-3.08-1,23.11,23.11,0,0,0-8.81,2.3A41,41,0,0,0,114,8.52a45.45,45.45,0,0,0-8.42,9.62,38.44,38.44,0,0,0-5.3,12.48A34.41,34.41,0,0,1,104.13,35a37.56,37.56,0,0,1,3.34,5.44,39.75,39.75,0,0,1,14.19,3.25,43,43,0,0,1,25.85,35.91Z"/></g></g></g></g></svg>