<svg xmlns="http://www.w3.org/2000/svg" viewBox="0 0 195.65 190.45"><defs><style>.cls-1{fill:#fff;}.cls-2{fill:#fc0;}.cls-3{fill:#55bef0;}</style></defs><g id="Слой_2" data-name="Слой 2"><g id="Слой_1-2" data-name="Слой 1"><g id="Symbols"><g id="Black-L"><path class="cls-1" d="M27.93,138.33h75.68a32.49,32.49,0,0,0,12.84-2.51,31.5,31.5,0,0,0,10.33-7,31.87,31.87,0,0,0,6.86-10.59,36.91,36.91,0,0,0-.17-26.83,32.45,32.45,0,0,0-7.35-10.87,33.27,33.27,0,0,0-11.18-7.15,37.47,37.47,0,0,0-14.06-2.49,48.14,48.14,0,0,0-8.52-11.28,40.17,40.17,0,0,0-12.77-8.42A44.25,44.25,0,0,0,62.16,48a43.59,43.59,0,0,0-29.4,11.13,42.17,42.17,0,0,0-9.44,12.36A41.06,41.06,0,0,0,19,86.82,26,26,0,0,0,9,92a24.73,24.73,0,0,0-6.64,8.79A27.19,27.19,0,0,0,0,112.11a26.26,26.26,0,0,0,3.52,13.72,24.13,24.13,0,0,0,9.81,9.2A31,31,0,0,0,27.93,138.33Z"/><path class="cls-2" d="M146.53,94.87A32.35,32.35,0,0,0,160.2,68.31a32.06,32.06,0,0,0-2.53-12.72,32.84,32.84,0,0,0-7.06-10.42,33.19,33.19,0,0,0-10.45-7,33.33,33.33,0,0,0-23.83-.63,32.82,32.82,0,0,0-9.42,5.25,30.57,30.57,0,0,0-6.86,7.64A42.18,42.18,0,0,1,104.13,55a35.66,35.66,0,0,1,3.39,5.52,42.47,42.47,0,0,1,18,5.07,41.45,41.45,0,0,1,13.75,12A40.74,40.74,0,0,1,146.53,94.87Zm30.72-19.14h10.88a7.32,7.32,0,0,0,5.3-2.15,7,7,0,0,0,2.22-5.22,7.58,7.58,0,0,0-7.52-7.52H177.25a7.32,7.32,0,0,0-5.33,2.22,7.22,7.22,0,0,0-2.24,5.3,7,7,0,0,0,2.24,5.22A7.42,7.42,0,0,0,177.25,75.73Zm-19.88-37.3a7.07,7.07,0,0,0,5.3,2.1A7.48,7.48,0,0,0,168,38.28l7.66-7.62a7.08,7.08,0,0,0,2.2-5.29,7.21,7.21,0,0,0-2.15-5.3,7.09,7.09,0,0,0-5.25-2.13,7.46,7.46,0,0,0-5.34,2.23l-7.72,7.61a7.61,7.61,0,0,0,0,10.65Zm-30-12.5a7,7,0,0,0,5.25-2.25,7.4,7.4,0,0,0,2.18-5.32V7.57a7.37,7.37,0,0,0-2.18-5.35,7.32,7.32,0,0,0-10.5,0,7.4,7.4,0,0,0-2.17,5.35V18.36a7.43,7.43,0,0,0,2.17,5.32A7,7,0,0,0,127.34,25.93ZM86.72,38.23a7.39,7.39,0,0,0,5.37,2.27,7.21,7.21,0,0,0,7.37-7.39,7.55,7.55,0,0,0-2.24-5.33L89.65,20a7,7,0,0,0-5.32-2.17A7.32,7.32,0,0,0,79,20a7,7,0,0,0-2.1,5.25,7.53,7.53,0,0,0,2.2,5.3Zm78.37,78.37a7.28,7.28,0,0,0,5.32,2.22,7.07,7.07,0,0,0,5.27-2.12,6.91,6.91,0,0,0,2.1-5.25,7.57,7.57,0,0,0-2.24-5.35L168,98.34a7.11,7.11,0,0,0-5.3-2.15,7.29,7.29,0,0,0-5.35,2.15,7.14,7.14,0,0,0-2.1,5.3,7.38,7.38,0,0,0,2.2,5.25Z"/><path class="cls-3" d="M101.37,187.65l7.71-13.38a5.2,5.2,0,0,0,.64-4,4.89,4.89,0,0,0-2.44-3.25,4.75,4.75,0,0,0-4-.54,5.62,5.62,0,0,0-3.15,2.64l-7.82,13.43a5.46,5.46,0,0,0-.63,4,4.7,4.7,0,0,0,2.44,3.23,5,5,0,0,0,4.08.46A5.38,5.38,0,0,0,101.37,187.65Zm-50.2,0,7.77-13.38a5.34,5.34,0,0,0,.63-4A4.88,4.88,0,0,0,57.08,167a4.8,4.8,0,0,0-3.95-.51A5.43,5.43,0,0,0,50,169.19l-7.76,13.43a5.36,5.36,0,0,0-.64,3.93,4.72,4.72,0,0,0,2.44,3.2,4.87,4.87,0,0,0,4,.46A5.39,5.39,0,0,0,51.17,187.7ZM31.3,170,39,156.64a5.28,5.28,0,0,0,.64-4,5,5,0,0,0-2.44-3.27,4.8,4.8,0,0,0-4-.49,5.76,5.76,0,0,0-3.2,2.63l-7.76,13.43a5.38,5.38,0,0,0-.64,3.93,4.82,4.82,0,0,0,2.44,3.25,4.91,4.91,0,0,0,4.06.46A5.57,5.57,0,0,0,31.3,170Zm50.15,0,7.76-13.38a5.41,5.41,0,0,0,.58-4,4.82,4.82,0,0,0-2.44-3.24,4.92,4.92,0,0,0-4-.52,5.53,5.53,0,0,0-3.15,2.66l-7.81,13.43a5.37,5.37,0,0,0-.63,3.93,4.64,4.64,0,0,0,2.44,3.2,5,5,0,0,0,4.08.46A5.41,5.41,0,0,0,81.45,170Z"/></g></g></g></g></svg>