<svg xmlns="http://www.w3.org/2000/svg" viewBox="0 0 177.78 118.41"><defs><style>.cls-1{fill:#fff;}</style></defs><g id="Слой_2" data-name="Слой 2"><g id="Слой_1-2" data-name="Слой 1"><g id="Symbols"><g id="Black-L"><path class="cls-1" d="M27.83,118.41h75.73a32.58,32.58,0,0,0,12.85-2.51,31.37,31.37,0,0,0,10.3-7,32.29,32.29,0,0,0,6.84-10.59A35.27,35.27,0,0,0,136,85.06a34.8,34.8,0,0,0-2.62-13.62A32.57,32.57,0,0,0,126,60.57a33.48,33.48,0,0,0-11.16-7.15,37.44,37.44,0,0,0-14.09-2.49,46.93,46.93,0,0,0-8.49-11.28,40.62,40.62,0,0,0-12.77-8.42A44.26,44.26,0,0,0,62.06,28,43.49,43.49,0,0,0,32.71,39.16a42.61,42.61,0,0,0-9.47,12.36A40.7,40.7,0,0,0,19,66.9a25.41,25.41,0,0,0-10,5.17,24.86,24.86,0,0,0-6.6,8.79A27.19,27.19,0,0,0,0,92.19a26.43,26.43,0,0,0,3.49,13.72,24,24,0,0,0,9.79,9.2A30.91,30.91,0,0,0,27.83,118.41Z"/><path class="cls-1" d="M147.27,79.64A43.8,43.8,0,0,0,159.91,74a46.37,46.37,0,0,0,9.62-8.4A37.62,37.62,0,0,0,175.66,56a23.17,23.17,0,0,0,2.12-9.2,6.59,6.59,0,0,0-.9-3.61,2.9,2.9,0,0,0-2.61-1.42,11.28,11.28,0,0,0-4.3,1,55.71,55.71,0,0,1-5.74,2,29.3,29.3,0,0,1-8.08,1,26.38,26.38,0,0,1-12.62-2.73,19.81,19.81,0,0,1-8.18-7.86,23.57,23.57,0,0,1-2.88-11.82,33.63,33.63,0,0,1,.95-8.3c.64-2.47,1.27-4.66,1.91-6.57a15.93,15.93,0,0,0,.95-4.86A3.51,3.51,0,0,0,135.18,1a4.16,4.16,0,0,0-3.05-1,23.29,23.29,0,0,0-8.84,2.3,40.9,40.9,0,0,0-9.62,6.22,44.55,44.55,0,0,0-8.4,9.62A39.59,39.59,0,0,0,100,30.62,31.82,31.82,0,0,1,103.88,35a35.43,35.43,0,0,1,3.3,5.44,40.32,40.32,0,0,1,14.21,3.3,43.42,43.42,0,0,1,21.53,20.33A42.8,42.8,0,0,1,147.27,79.64Z"/></g></g></g></g></svg>