<svg xmlns="http://www.w3.org/2000/svg" viewBox="0 0 135.79 122.27"><defs><style>.cls-1{fill:#fff;}</style></defs><g id="Слой_2" data-name="Слой 2"><g id="Слой_1-2" data-name="Слой 1"><g id="Symbols"><g id="Black-L"><path class="cls-1" d="M108.45,75.15a29.84,29.84,0,0,0,14.06-3.23,24.92,24.92,0,0,0,9.71-8.81,23.21,23.21,0,0,0,3.57-12.77,24.46,24.46,0,0,0-3.3-12.67,24.13,24.13,0,0,0-8.88-8.81,24.65,24.65,0,0,0-12.53-3.23,23.92,23.92,0,0,0-10,2.13,25,25,0,0,0-8.15,5.88,22.9,22.9,0,0,0-5,8.65A7.26,7.26,0,0,0,88,47.51a5.81,5.81,0,0,0,3.49,3.37,6.6,6.6,0,0,0,5.3-.27,7.17,7.17,0,0,0,3.64-4.32,10.69,10.69,0,0,1,2.39-3.93,11.59,11.59,0,0,1,8.3-3.54A12,12,0,0,1,117,40.26a10.62,10.62,0,0,1,4.12,4.05,11.79,11.79,0,0,1,1.52,6,10.49,10.49,0,0,1-3.86,8.45Q114.9,62,108.45,62a68.74,68.74,0,0,1-14.7-1.66Q86.13,58.69,78,56.52T61,52.71a100.42,100.42,0,0,0-18.34-1.64,123.52,123.52,0,0,0-19.21,1.47A122.11,122.11,0,0,0,5.08,56.88a7.31,7.31,0,0,0-4.25,3.3,6.24,6.24,0,0,0-.54,5,6.14,6.14,0,0,0,3.25,4,6.83,6.83,0,0,0,5.54.17,96.27,96.27,0,0,1,16.26-3.93,115.76,115.76,0,0,1,17.28-1.24A89.67,89.67,0,0,1,60.2,65.87q8.35,1.66,16.26,3.81t15.8,3.81A78.84,78.84,0,0,0,108.45,75.15ZM67.09,122.27a19.57,19.57,0,0,0,10-2.59,19.31,19.31,0,0,0,7.05-7.08,20.08,20.08,0,0,0,2.62-10.26q0-12.34-12.09-19T40.33,76.71a109.06,109.06,0,0,0-17.77,1.51A116.58,116.58,0,0,0,5.08,82.47a7.27,7.27,0,0,0-4.25,3.3,6.21,6.21,0,0,0-.54,5,6.14,6.14,0,0,0,3.25,4A6.83,6.83,0,0,0,9.08,95a90.51,90.51,0,0,1,15.21-3.81,101.49,101.49,0,0,1,16-1.27q15.77,0,24.51,3.42t8.74,9a6.67,6.67,0,0,1-1.83,5,6.33,6.33,0,0,1-4.66,1.81A6,6,0,0,1,63,107.71a9.54,9.54,0,0,1-2.63-4A6.86,6.86,0,0,0,56.88,100a6.31,6.31,0,0,0-5.08-.08,5.71,5.71,0,0,0-3.66,3.62,7.55,7.55,0,0,0,.25,5.51,21,21,0,0,0,7.17,9.5A18.71,18.71,0,0,0,67.09,122.27ZM8.93,42.43a98.74,98.74,0,0,1,13.8-2.9,100.08,100.08,0,0,1,13.69-1q5.56,0,10.5.42l9.79.83c3.24.28,6.67.41,10.28.41A21.78,21.78,0,0,0,77.81,37.6a19.44,19.44,0,0,0,7.39-7.2,20,20,0,0,0,2.69-10.33A19.72,19.72,0,0,0,78,2.61,20.12,20.12,0,0,0,67.77,0a19.69,19.69,0,0,0-7.13,1.34,21.15,21.15,0,0,0-6.27,3.79,19.39,19.39,0,0,0-4.52,5.71,7.18,7.18,0,0,0-.78,5A5.88,5.88,0,0,0,52,19.78a6.16,6.16,0,0,0,5.18.7,7.31,7.31,0,0,0,4.34-3.63,7.1,7.1,0,0,1,2.61-2.67,6.93,6.93,0,0,1,3.64-1,7.6,7.6,0,0,1,3.61.83,6,6,0,0,1,2.45,2.4,7.51,7.51,0,0,1,.87,3.71,6.62,6.62,0,0,1-2,5.15A8.06,8.06,0,0,1,67,27.1q-3.66,0-7.28-.27c-2.4-.18-4.85-.37-7.32-.58s-5-.41-7.67-.59-5.4-.27-8.3-.27a106.86,106.86,0,0,0-15.6,1.17,142.83,142.83,0,0,0-15.7,3.23A6.78,6.78,0,0,0,.85,33a6.43,6.43,0,0,0-.56,5.11,6.12,6.12,0,0,0,3.15,4A7,7,0,0,0,8.93,42.43Z"/></g></g></g></g></svg>