<svg xmlns="http://www.w3.org/2000/svg" viewBox="0 0 195.7 138.04"><defs><style>.cls-1{fill:#fff;}.cls-2{fill:#fc0;}</style></defs><g id="Слой_2" data-name="Слой 2"><g id="Слой_1-2" data-name="Слой 1"><g id="Symbols"><g id="Black-L"><path class="cls-1" d="M27.88,138h75.68a32.41,32.41,0,0,0,12.85-2.52,31.24,31.24,0,0,0,10.3-7,32.51,32.51,0,0,0,6.86-10.59A36.77,36.77,0,0,0,133.42,91a32,32,0,0,0-7.37-10.84,33.78,33.78,0,0,0-11.18-7.13,37.7,37.7,0,0,0-14-2.54,47.66,47.66,0,0,0-8.54-11.26,41.09,41.09,0,0,0-12.77-8.4,44.27,44.27,0,0,0-17.46-3.19A43.59,43.59,0,0,0,32.71,58.79a42.13,42.13,0,0,0-9.44,12.35A41.11,41.11,0,0,0,19,86.52,25,25,0,0,0,2.34,100.46,27.16,27.16,0,0,0,0,111.82a26.26,26.26,0,0,0,3.52,13.72,24.21,24.21,0,0,0,9.79,9.2A30.85,30.85,0,0,0,27.88,138Z"/><path class="cls-2" d="M146.63,94.92a32.46,32.46,0,0,0,9.94-11.37,33.05,33.05,0,0,0,1.19-28,32.65,32.65,0,0,0-7-10.42,33.11,33.11,0,0,0-10.45-7,31.76,31.76,0,0,0-12.67-2.54,32.46,32.46,0,0,0-11.16,1.9A32.82,32.82,0,0,0,107,42.75a29.42,29.42,0,0,0-6.81,7.64,43.88,43.88,0,0,1,4,4.64,38.34,38.34,0,0,1,3.45,5.52,42.17,42.17,0,0,1,18,5.08,41.31,41.31,0,0,1,13.72,12A40.75,40.75,0,0,1,146.63,94.92Zm30.71-19.19h10.84a7.33,7.33,0,0,0,5.3-2.15,7,7,0,0,0,2.22-5.22,7.58,7.58,0,0,0-7.52-7.52H177.34A7.32,7.32,0,0,0,172,63.06a7.18,7.18,0,0,0-2.24,5.3A6.93,6.93,0,0,0,172,73.58,7.41,7.41,0,0,0,177.34,75.73Zm-49.9-49.8a7.1,7.1,0,0,0,5.27-2.25,7.34,7.34,0,0,0,2.2-5.32V7.57a7.32,7.32,0,0,0-2.2-5.35,7.34,7.34,0,0,0-10.52,0A7.37,7.37,0,0,0,120,7.57V18.36a7.39,7.39,0,0,0,2.17,5.32A7,7,0,0,0,127.44,25.93Zm30,12.5a7.05,7.05,0,0,0,5.3,2.1,7.56,7.56,0,0,0,5.35-2.2l7.66-7.67a7.08,7.08,0,0,0,2.2-5.29,7.21,7.21,0,0,0-2.15-5.3,7.09,7.09,0,0,0-5.25-2.13,7.25,7.25,0,0,0-5.3,2.28l-7.71,7.56a7.15,7.15,0,0,0-2.2,5.33A7.32,7.32,0,0,0,157.47,38.43Zm-70.65-.2a7.36,7.36,0,0,0,5.37,2.27,7.07,7.07,0,0,0,5.27-2.12,7,7,0,0,0,2.1-5.25,7.62,7.62,0,0,0-2.2-5.35L89.75,20a7,7,0,0,0-5.3-2.17A7.33,7.33,0,0,0,79.1,20,7,7,0,0,0,77,25.29a7.25,7.25,0,0,0,2.25,5.28Zm78.37,78.37a7.41,7.41,0,0,0,5.34,2.22,7.21,7.21,0,0,0,7.35-7.37,7.62,7.62,0,0,0-2.2-5.35l-7.61-7.71a7,7,0,0,0-5.28-2.2,7.3,7.3,0,0,0-5.37,2.2,7,7,0,0,0-2.1,5.25,7.25,7.25,0,0,0,2.25,5.25Z"/></g></g></g></g></svg>