<svg xmlns="http://www.w3.org/2000/svg" viewBox="0 0 178.03 170.44"><defs><style>.cls-1{fill:#fff;}.cls-2{fill:#55bef0;}</style></defs><g id="Слой_2" data-name="Слой 2"><g id="Слой_1-2" data-name="Слой 1"><g id="Symbols"><g id="Black-L"><path class="cls-1" d="M27.88,118.36h75.68a32.58,32.58,0,0,0,12.85-2.51,31.39,31.39,0,0,0,10.3-7,32.66,32.66,0,0,0,6.86-10.6,36.77,36.77,0,0,0-.15-26.88,32.22,32.22,0,0,0-7.37-10.86,33.15,33.15,0,0,0-11.18-7.13,38.25,38.25,0,0,0-14.09-2.52,47.32,47.32,0,0,0-8.49-11.28,40.62,40.62,0,0,0-12.77-8.42,44.26,44.26,0,0,0-17.46-3.2,43.23,43.23,0,0,0-16,3,43.72,43.72,0,0,0-13.36,8.22,42.17,42.17,0,0,0-9.44,12.36A41.06,41.06,0,0,0,19,66.85,24.91,24.91,0,0,0,2.34,80.79,27,27,0,0,0,0,92.09a26.26,26.26,0,0,0,3.52,13.72A24.34,24.34,0,0,0,13.31,115,30.73,30.73,0,0,0,27.88,118.36Z"/><path class="cls-1" d="M147.51,79.64a45.54,45.54,0,0,0,12.67-5.71,45.05,45.05,0,0,0,9.62-8.4A38.83,38.83,0,0,0,175.9,56,23.07,23.07,0,0,0,178,46.78a6.51,6.51,0,0,0-.91-3.61,2.9,2.9,0,0,0-2.61-1.42,11.63,11.63,0,0,0-4.27,1q-2.42,1-5.76,2a29.35,29.35,0,0,1-8.08,1A26.44,26.44,0,0,1,143.8,43a19.59,19.59,0,0,1-8.18-7.84,23.61,23.61,0,0,1-2.86-11.79,34.44,34.44,0,0,1,.93-8.32q.93-3.73,1.88-6.57a15.47,15.47,0,0,0,1-4.84A3.52,3.52,0,0,0,135.45,1a4.12,4.12,0,0,0-3.08-1,23.11,23.11,0,0,0-8.81,2.3A41,41,0,0,0,114,8.52a45.45,45.45,0,0,0-8.42,9.62,38.44,38.44,0,0,0-5.3,12.48A34.41,34.41,0,0,1,104.13,35a37.56,37.56,0,0,1,3.34,5.44,39.75,39.75,0,0,1,14.19,3.25,43,43,0,0,1,25.85,35.91Z"/><path class="cls-2" d="M31,150l7.76-13.38a5.46,5.46,0,0,0,.59-4,5.23,5.23,0,0,0-6.43-3.76,5.46,5.46,0,0,0-3.14,2.67L22,144.92a5.37,5.37,0,0,0-.63,3.93,4.64,4.64,0,0,0,2.44,3.2,5,5,0,0,0,4.08.47A5.43,5.43,0,0,0,31,150ZM81.15,150l7.77-13.38a5.41,5.41,0,0,0,.61-4,5.29,5.29,0,0,0-6.45-3.78,5.54,5.54,0,0,0-3.15,2.64l-7.76,13.42a5.44,5.44,0,0,0-.64,4A4.71,4.71,0,0,0,74,152.05a4.83,4.83,0,0,0,4,.47A5.34,5.34,0,0,0,81.15,150ZM50.93,167.63l7.76-13.38a5.31,5.31,0,0,0,.59-4A4.89,4.89,0,0,0,56.84,147a4.71,4.71,0,0,0-4-.53,5.56,5.56,0,0,0-3.15,2.63l-7.82,13.43a5.57,5.57,0,0,0-.63,4,4.69,4.69,0,0,0,2.44,3.2,5,5,0,0,0,4.08.46A5.38,5.38,0,0,0,50.93,167.63Zm50.14,0,7.77-13.38a5.5,5.5,0,0,0,.61-4A4.94,4.94,0,0,0,107,147a4.83,4.83,0,0,0-4-.48,5.56,5.56,0,0,0-3.15,2.63l-7.76,13.43a5.15,5.15,0,0,0-.66,3.93,5,5,0,0,0,2.42,3.25,4.89,4.89,0,0,0,4.07.44A5.47,5.47,0,0,0,101.07,167.63Z"/></g></g></g></g></svg>