<svg xmlns="http://www.w3.org/2000/svg" viewBox="0 0 153.03 157.54"><defs><style>.cls-1{fill:#fff;}.cls-2{fill:#55bef0;}</style></defs><g id="Слой_2" data-name="Слой 2"><g id="Слой_1-2" data-name="Слой 1"><g id="Symbols"><g id="Black-L"><path class="cls-1" d="M33.79,103.61h79.49a40.54,40.54,0,0,0,15.72-3,38.91,38.91,0,0,0,12.63-8.35A38.35,38.35,0,0,0,150,79.81a38.79,38.79,0,0,0,3-15.31,39.37,39.37,0,0,0-3-15.45,38.3,38.3,0,0,0-21-20.88,41.12,41.12,0,0,0-15.75-3,50.18,50.18,0,0,0-9.49-12.75A43,43,0,0,0,89.6,3.37,51.09,51.09,0,0,0,70.26,0a49.53,49.53,0,0,0-18,3.22,48.87,48.87,0,0,0-31,39,33.33,33.33,0,0,0-10.91,6.32A29.93,29.93,0,0,0,0,71.73,31.67,31.67,0,0,0,4.2,87.94,30.43,30.43,0,0,0,16,99.39,36,36,0,0,0,33.79,103.61Z"/><path class="cls-2" d="M101.81,154.74l18.11-31.3a5.16,5.16,0,0,0,.64-4,5,5,0,0,0-2.44-3.27,4.81,4.81,0,0,0-4-.49,5.4,5.4,0,0,0-3.15,2.64L92.87,149.61a5.36,5.36,0,0,0-.63,3.95,4.67,4.67,0,0,0,2.44,3.23,4.85,4.85,0,0,0,4,.49A5.3,5.3,0,0,0,101.81,154.74Zm-50.2,0,18.17-31.35a5.42,5.42,0,0,0,.61-4A4.8,4.8,0,0,0,68,116.26a4.72,4.72,0,0,0-4-.54,5.4,5.4,0,0,0-3.15,2.64L42.72,149.61a5.57,5.57,0,0,0-.63,4,5.06,5.06,0,0,0,6.42,3.71A5.41,5.41,0,0,0,51.61,154.79ZM36.87,136.91l7.71-13.37a5.26,5.26,0,0,0,.63-4,5,5,0,0,0-2.44-3.27,4.83,4.83,0,0,0-4-.49,5.75,5.75,0,0,0-3.19,2.64l-7.77,13.43a5.36,5.36,0,0,0-.63,3.93A4.79,4.79,0,0,0,29.64,139a4.89,4.89,0,0,0,4,.47A5.58,5.58,0,0,0,36.87,136.91Zm50.14,0,7.77-13.37a5.46,5.46,0,0,0,.58-4,5.19,5.19,0,0,0-6.42-3.76,5.4,5.4,0,0,0-3.15,2.66L78,131.84a5.25,5.25,0,0,0-.61,3.93A4.74,4.74,0,0,0,79.79,139a4.93,4.93,0,0,0,4.07.47A5.37,5.37,0,0,0,87,136.91Z"/></g></g></g></g></svg>