<svg xmlns="http://www.w3.org/2000/svg" viewBox="0 0 124.07 124.61"><defs><style>.cls-1{fill:#fff;}</style></defs><g id="Слой_2" data-name="Слой 2"><g id="Слой_1-2" data-name="Слой 1"><g id="Symbols"><g id="Black-L"><path class="cls-1" d="M95,80.81a61.18,61.18,0,0,1-21-3.37,43.94,43.94,0,0,1-15.87-9.72,41.86,41.86,0,0,1-10-15.4,56.79,56.79,0,0,1-3.47-20.48,65.83,65.83,0,0,1,1-11.53,33.77,33.77,0,0,1,2.9-9.47,19.36,19.36,0,0,0,1.27-3.1A9.06,9.06,0,0,0,50.29,5a5.05,5.05,0,0,0-1.36-3.57A5,5,0,0,0,45.12,0,12.74,12.74,0,0,0,42.6.29a18,18,0,0,0-3,.93,60.31,60.31,0,0,0-16.26,9.69A65.21,65.21,0,0,0,2.81,42,64.21,64.21,0,0,0,0,60.89a68,68,0,0,0,3.1,20.8A61.17,61.17,0,0,0,12,99.29a59.81,59.81,0,0,0,13.72,13.55,62.62,62.62,0,0,0,17.73,8.72,69.66,69.66,0,0,0,20.85,3,63.9,63.9,0,0,0,48.83-22.41,59.82,59.82,0,0,0,9.47-15.29,21.67,21.67,0,0,0,1.15-3.44,12.75,12.75,0,0,0,.36-2.76,4.88,4.88,0,0,0-1.29-3.56,4.41,4.41,0,0,0-3.3-1.32,10.82,10.82,0,0,0-3,.44,18.58,18.58,0,0,0-3.3,1.32,35.15,35.15,0,0,1-8.08,2.32A56.86,56.86,0,0,1,95,80.81Z"/></g></g></g></g></svg>