<svg xmlns="http://www.w3.org/2000/svg" viewBox="0 0 98.1 148.68"><defs><style>.cls-1{fill:#fff;}</style></defs><g id="Слой_2" data-name="Слой 2"><g id="Слой_1-2" data-name="Слой 1"><g id="Symbols"><g id="Black-L"><path class="cls-1" d="M39.7,148.68a39.27,39.27,0,0,0,15.35-3,39.82,39.82,0,0,0,12.6-8.35,39.12,39.12,0,0,0,8.52-12.43,37.93,37.93,0,0,0,3.08-15.28,36.59,36.59,0,0,0-3-14.72,39.34,39.34,0,0,0-8.52-12.33,3.7,3.7,0,0,1-1.46-3.37l.1-50.59a32,32,0,0,0-3.37-15,24.82,24.82,0,0,0-9.38-10A26.71,26.71,0,0,0,39.7,0a27,27,0,0,0-14,3.59,24.8,24.8,0,0,0-9.4,10,31.89,31.89,0,0,0-3.37,15L13,79.2a4.9,4.9,0,0,1-.29,1.88,5.16,5.16,0,0,1-1.18,1.49A34.69,34.69,0,0,0,2.88,94.8,38.16,38.16,0,0,0,0,109.62,37.61,37.61,0,0,0,3.1,124.9a39.62,39.62,0,0,0,36.6,23.78Zm0-16.7a22.27,22.27,0,0,1-8.89-1.78,23.07,23.07,0,0,1-12.23-12.26A22.4,22.4,0,0,1,16.8,109,22.14,22.14,0,0,1,19.53,98a23,23,0,0,1,7.62-8,6.74,6.74,0,0,0,2-1.85,5.44,5.44,0,0,0,.59-2.84V29.1a13.64,13.64,0,0,1,2.76-8.93,8.83,8.83,0,0,1,7.2-3.37,8.71,8.71,0,0,1,7.08,3.37,13.74,13.74,0,0,1,2.73,8.93V85.25a5.33,5.33,0,0,0,.61,2.84,7.31,7.31,0,0,0,2,1.85,23.28,23.28,0,0,1,7.64,8A22,22,0,0,1,62.5,109a22.4,22.4,0,0,1-1.78,8.91,23.3,23.3,0,0,1-4.91,7.33,22.9,22.9,0,0,1-7.25,4.93A22.09,22.09,0,0,1,39.7,132Zm-.05-8.49a13.73,13.73,0,0,0,7.22-2,14.78,14.78,0,0,0,5.23-5.22A14,14,0,0,0,54.05,109a13.28,13.28,0,0,0-2.15-7.44,15,15,0,0,0-5.61-5.15,5.48,5.48,0,0,1-2-1.64,6,6,0,0,1-.56-3V63.13a5,5,0,0,0-1.22-3.58,3.87,3.87,0,0,0-5.79,0,5.09,5.09,0,0,0-1.19,3.58V91.7a6,6,0,0,1-.56,3,5.45,5.45,0,0,1-2,1.64,15.12,15.12,0,0,0-5.57,5.15A13.36,13.36,0,0,0,25.24,109a14.2,14.2,0,0,0,1.93,7.33,14.69,14.69,0,0,0,5.2,5.22A13.87,13.87,0,0,0,39.65,123.49Z"/><path class="cls-1" d="M79.05,80.37H93.51a4.37,4.37,0,0,0,3.34-1.32,4.77,4.77,0,0,0,0-6.44,4.37,4.37,0,0,0-3.34-1.32H79.05a4.54,4.54,0,1,0,0,9.08Zm0-17.09H93.51A4.37,4.37,0,0,0,96.85,62a4.52,4.52,0,0,0,1.25-3.22,4.59,4.59,0,0,0-1.25-3.27,4.37,4.37,0,0,0-3.34-1.32H79.05a4.47,4.47,0,0,0-3.37,1.32,4.56,4.56,0,0,0-1.27,3.27,4.43,4.43,0,0,0,4.64,4.54Zm0-17.14H93.51a4.37,4.37,0,0,0,3.34-1.32,4.77,4.77,0,0,0,0-6.44,4.37,4.37,0,0,0-3.34-1.32H79.05a4.54,4.54,0,1,0,0,9.08Zm0-16.79H93.51A4.37,4.37,0,0,0,96.85,28a4.81,4.81,0,0,0,0-6.47,4.32,4.32,0,0,0-3.34-1.35H79.05a4.41,4.41,0,0,0-3.37,1.35,4.76,4.76,0,0,0,0,6.47A4.47,4.47,0,0,0,79.05,29.35Z"/></g></g></g></g></svg>