<svg xmlns="http://www.w3.org/2000/svg" viewBox="0 0 137.94 112.55"><defs><style>.cls-1{fill:#fff;}</style></defs><g id="Слой_2" data-name="Слой 2"><g id="Слой_1-2" data-name="Слой 1"><g id="Symbols"><g id="Bold-L"><path class="cls-1" d="M109.56,112.55A28.31,28.31,0,0,0,134.14,98.8a26.68,26.68,0,0,0,3.8-14,32,32,0,0,0-2.54-12.43q-2.55-6.06-5.2-11.08L116,34.76a7.15,7.15,0,0,0-12.76,0L89,61.28q-2.69,5-5.2,11.08a32.11,32.11,0,0,0-2.52,12.43,26.68,26.68,0,0,0,3.8,14,28.21,28.21,0,0,0,24.53,13.75Zm-82.75-76a49.65,49.65,0,0,0,15.84-2.41,84,84,0,0,0,13.7-6q6.48-3.54,12.74-7.08A84.84,84.84,0,0,1,82,15.11,42.1,42.1,0,0,1,96.46,12.7a33.18,33.18,0,0,1,8.74,1.12A37.64,37.64,0,0,1,114,17.59a5.9,5.9,0,0,0,4.57.73,6.36,6.36,0,0,0,4.64-7.57,6.76,6.76,0,0,0-3.58-4.52A45.56,45.56,0,0,0,96.46,0,51,51,0,0,0,80.38,2.41,82.53,82.53,0,0,0,66.61,8.36q-6.45,3.54-12.69,7.08a85,85,0,0,1-12.87,6A41.26,41.26,0,0,1,26.81,23.8,33.29,33.29,0,0,1,18,22.68a37.28,37.28,0,0,1-8.72-3.77,6,6,0,0,0-4.66-.73,5.82,5.82,0,0,0-3.53,2.61,6.35,6.35,0,0,0-1,5,6.66,6.66,0,0,0,3.5,4.46A45.63,45.63,0,0,0,26.81,36.5Zm.09,33.78A48.39,48.39,0,0,0,40.24,68.5a70.75,70.75,0,0,0,11.85-4.58q5.65-2.79,11-5.84t10.93-5.65a55.37,55.37,0,0,1,11.49-4c1.28-2.42,2.58-4.84,3.88-7.25s2.61-4.84,3.9-7.28a54.37,54.37,0,0,0-15.28,3.12,92.46,92.46,0,0,0-13,6q-6.14,3.43-12.08,6.77a76.48,76.48,0,0,1-12.29,5.56A41.54,41.54,0,0,1,26.9,57.58a33.32,33.32,0,0,1-8.78-1.12A36.92,36.92,0,0,1,9.4,52.68,6,6,0,0,0,4.74,52a5.75,5.75,0,0,0-3.53,2.61,6.34,6.34,0,0,0-1,5,6.68,6.68,0,0,0,3.5,4.46A45.74,45.74,0,0,0,26.9,70.28Zm-.09,33.77a48,48,0,0,0,13-1.69A69.86,69.86,0,0,0,51.38,98q5.5-2.64,10.71-5.61t10.56-5.53a27.15,27.15,0,0,1,0-7,39.65,39.65,0,0,1,1.56-7.41,104.27,104.27,0,0,0-11.86,5.81q-5.67,3.23-11.23,6.21a69.84,69.84,0,0,1-11.51,4.93,41,41,0,0,1-12.78,1.94A33.29,33.29,0,0,1,18,90.23a37.28,37.28,0,0,1-8.72-3.77,6,6,0,0,0-4.66-.73,5.82,5.82,0,0,0-3.53,2.61,6.37,6.37,0,0,0-1,5,6.68,6.68,0,0,0,3.5,4.46A45.72,45.72,0,0,0,26.81,104.05Z"/></g></g></g></g></svg>