<svg xmlns="http://www.w3.org/2000/svg" viewBox="0 0 111.57 136.47"><defs><style>.cls-1{fill:#fff;}</style></defs><g id="Слой_2" data-name="Слой 2"><g id="Слой_1-2" data-name="Слой 1"><g id="Symbols"><g id="Medium-L"><path class="cls-1" d="M0,80.57A56.14,56.14,0,0,0,2.78,98.29a55.34,55.34,0,0,0,7.91,15.38,55.79,55.79,0,0,0,27.42,20,55.33,55.33,0,0,0,17.7,2.8,55,55,0,0,0,17.63-2.8,56.3,56.3,0,0,0,15.33-7.91,55.68,55.68,0,0,0,22.8-45.19A5.29,5.29,0,0,0,110,76.64a5.36,5.36,0,0,0-4-1.54,4.86,4.86,0,0,0-3.76,1.54,5.57,5.57,0,0,0-1.41,3.93,44.14,44.14,0,0,1-3.52,17.62,45.34,45.34,0,0,1-24,24,44,44,0,0,1-17.53,3.49,44.17,44.17,0,0,1-17.55-3.49,45.35,45.35,0,0,1-14.38-9.67,44.67,44.67,0,0,1-13.14-32A44.83,44.83,0,0,1,38.13,39,44,44,0,0,1,55.66,35.5a65.78,65.78,0,0,1,6.86.34,46.54,46.54,0,0,1,6,1L49.61,55.71a5.68,5.68,0,0,0-1.12,1.71,5,5,0,0,0-.39,2,5.13,5.13,0,0,0,1.49,3.76,5,5,0,0,0,3.73,1.51,5.09,5.09,0,0,0,3.76-1.47L83.4,36.57a6.43,6.43,0,0,0,1.37-2,5.44,5.44,0,0,0,.44-2.15,5.66,5.66,0,0,0-1.81-4.1L57.08,1.56a5.28,5.28,0,0,0-7.49,0A5.28,5.28,0,0,0,48.1,5.37a5.44,5.44,0,0,0,.36,2,5.54,5.54,0,0,0,1.1,1.68l17.09,17c-1.56-.32-3.29-.6-5.18-.83A50,50,0,0,0,55.66,25,54.68,54.68,0,0,0,34,29.25,55.85,55.85,0,0,0,4.3,58.91,54.56,54.56,0,0,0,0,80.57Z"/></g></g></g></g></svg>